<?xml version="1.0" standalone="no"?><!DOCTYPE svg PUBLIC "-//W3C//DTD SVG 1.1//EN" "http://www.w3.org/Graphics/SVG/1.1/DTD/svg11.dtd"><svg t="1563846003027" class="icon" viewBox="0 0 1024 1024" version="1.1" xmlns="http://www.w3.org/2000/svg" p-id="2193" xmlns:xlink="http://www.w3.org/1999/xlink" width="64" height="64"><defs><style type="text/css"></style></defs><path d="M705.77-1.984h-387.54v899.971l195.607-115.089 191.932 115.089v-899.971zM422.905 103.127h18.905v30.107h131.367v-56.451h-158.411v-16.279h176.878v102.398h-18.467v-13.391h-131.367v63.89c0 13.478 6.389 20.217 19.079 20.217h108.35c12.603 0 20.217-4.551 22.843-13.566 2.625-8.927 4.639-20.917 5.951-35.883 5.776 2.538 11.99 4.726 18.905 6.652-2.013 15.229-4.288 27.394-6.563 36.409-4.464 16.629-16.717 24.855-36.934 24.855h-116.927c-22.405 0-33.607-11.552-33.607-34.657v-114.302zM406.625 402.096h206.548v15.578h-70.979v46.561c0 9.714 4.814 14.528 14.353 14.528h23.281c9.977 0 15.49-3.326 16.628-10.065 1.225-6.74 2.013-16.366 2.451-28.793 5.252 2.013 11.728 4.201 19.343 6.563-1.050 11.99-2.363 21.88-3.938 29.495-2.101 12.603-10.94 18.905-26.606 18.905h-35.797c-18.292 0-27.482-9.452-27.482-28.181v-49.012h-39.383c-0.438 41.309-24.681 68.878-72.641 82.619-2.976-4.814-6.652-10.24-11.028-16.192 43.322-10.59 65.377-32.732 66.165-66.427h-60.914v-15.578zM408.464 311.601h93.997c-2.888-5.951-6.476-12.953-10.94-20.918l17.066-7.965c5.776 11.202 10.502 20.742 14.091 28.882h87.87v40.347h-18.029v-24.769h-166.114v24.769h-17.942v-40.347zM433.844 356.586h154.736v15.404h-154.736v-15.404zM493.62 721.458c16.979-11.378 32.032-24.505 45.336-39.647-8.489-21.618-13.566-56.451-15.053-104.675h-82.97v33.345h63.277c-0.876 28.006-2.013 51.549-3.501 70.541-1.75 20.217-11.553 30.369-29.495 30.369-5.951 0-14.003-0.262-23.893-0.876-0.876-5.426-2.101-11.466-3.501-18.292 10.24 1.488 18.817 2.187 25.731 2.187 8.402 0 13.215-5.864 14.266-17.504 1.138-13.478 2.013-30.195 2.625-50.15h-45.598c-1.225 50.937-11.466 88.571-30.894 112.988-3.676-4.988-7.439-10.065-11.466-15.229 16.541-21.968 24.856-56.625 24.856-104.062v-59.602h99.861c-0.438-11.553-0.963-24.067-1.4-37.546h18.292c-0.088 10.328 0 22.843 0.525 37.546h75.705v16.279h-75.18c1.488 39.383 5.077 68.878 10.852 88.308 14.266-19.254 25.906-41.047 35.008-65.466l17.417 7.264c-12.603 29.757-27.743 55.751-45.423 77.805 10.765 21.88 21.354 32.82 31.595 32.82 3.763 0 6.563-3.413 8.577-10.24 2.013-10.678 3.589-21.618 4.814-32.908 6.302 2.451 11.815 4.464 16.717 6.127-2.275 15.667-4.639 28.444-7.264 38.422-2.801 10.764-8.927 16.541-18.467 17.33-8.927 0.612-17.504-2.363-25.731-8.927-8.839-6.827-16.366-16.192-22.58-28.181-12.427 13.391-25.906 25.030-40.434 35.183-3.85-4.376-8.051-8.839-12.603-13.215zM556.723 534.078l9.277-11.466c12.253 7.089 23.805 14.353 34.483 21.968l-10.59 13.215c-10.502-8.403-21.618-16.279-33.17-23.718z" p-id="2194" fill="#d81e06"></path></svg>