<?xml version="1.0" standalone="no"?><!DOCTYPE svg PUBLIC "-//W3C//DTD SVG 1.1//EN" "http://www.w3.org/Graphics/SVG/1.1/DTD/svg11.dtd"><svg t="1563256802237" class="icon" viewBox="0 0 1024 1024" version="1.1" xmlns="http://www.w3.org/2000/svg" p-id="12412" xmlns:xlink="http://www.w3.org/1999/xlink" width="64" height="64"><defs><style type="text/css"></style></defs><path d="M212.996 730.604c62.258 58.98 131.071 105.676 184.321 132.711 31.945 16.382 57.343 24.574 72.906 24.574 39.324 0 157.289-61.438 256.41-156.465 65.535-63.078 123.699-140.902 144.18-224.461 19.66-80.281 1.636-165.48-58.164-224.461-40.961-40.961-97.485-65.535-159.742-65.535-76.188 0-142.543 36.863-183.5 93.387-27.856-38.504-67.997-67.992-114.692-83.559-81.098-25.394-170.39-4.094-229.375 54.887-59.801 58.984-77.824 144.18-57.344 224.461 20.481 82.738 78.645 160.562 145 224.461z" fill="#F44444" p-id="12413"></path><path d="M452.976 892.889c-16.892 0-43.594-8.923-75.188-25.124-60.968-30.953-128.578-79.627-185.478-133.531-54.074-52.073-123.341-133.677-146.414-226.889-21.864-85.705 0.072-171.409 58.686-229.222 42.494-42.491 102.211-66.874 163.817-66.874 23.989 0 47.73 3.625 70.563 10.775 44.976 14.993 84.9 43.26 113.2 79.978 20.448-26.534 46.678-48.567 76.225-63.971 33.176-17.294 69.268-26.063 107.273-26.063 62.086 0 120.072 23.794 163.277 67 58.299 57.5 80.545 143.186 59.485 229.186-23.004 93.852-91.858 175.177-145.569 226.874-102.022 97.807-220.119 157.861-259.877 157.861z m-184.577-671.64c-58.974 0-116.114 23.316-156.771 63.969-56.08 55.314-77.018 137.432-56.034 219.689 22.51 90.933 90.527 170.964 143.624 222.095 55.373 52.457 123.838 101.76 183.116 131.855 30.226 15.5 55.308 24.031 70.643 24.031 37.183 0 154.207-60.41 252.95-155.074 52.751-50.773 120.351-130.518 142.784-222.042 20.214-82.547-1.026-164.682-56.818-219.711-41.342-41.341-96.816-64.095-156.231-64.095-71.991 0-137.399 33.285-179.451 91.321l-4.052 5.592-4.048-5.595c-27.257-37.676-67.112-66.708-112.222-81.747-21.78-6.817-44.515-10.288-67.49-10.288z" p-id="12414"></path><path d="M83.515 508.542a5.002 5.002 0 0 1-4.863-3.856c-3.482-14.803-5.618-29.881-6.346-44.816a5.001 5.001 0 0 1 4.75-5.238c2.753-0.141 5.103 1.992 5.238 4.75 0.699 14.33 2.749 28.801 6.092 43.014a5 5 0 0 1-4.871 6.146z m-6.41-61.531c-0.045 0-0.09 0-0.136-0.002a5 5 0 0 1-4.865-5.131c1.189-44.627 14.965-86.535 39.838-121.192l0.007-0.01a209.409 209.409 0 0 1 23.008-26.891 210.916 210.916 0 0 1 26.92-22.729c2.251-1.601 5.373-1.07 6.972 1.182a5 5 0 0 1-1.182 6.972 200.75 200.75 0 0 0-25.653 21.661l-0.031 0.03a199.457 199.457 0 0 0-21.91 25.607l-0.007 0.01c-23.702 33.025-36.83 73.008-37.966 115.628a5 5 0 0 1-4.995 4.865z m148.199-196.592a5.001 5.001 0 0 1-1.463-9.783 222.53 222.53 0 0 1 49.323-9.18c2.745-0.208 5.146 1.878 5.342 4.632a5 5 0 0 1-4.632 5.342 212.445 212.445 0 0 0-47.103 8.767 4.962 4.962 0 0 1-1.467 0.222z" fill="#FFFFFF" p-id="12415"></path><path d="M962.56 903c0 6.627-5.373 12-12 12h-415c-6.627 0-12-5.373-12-12V564.069c0-6.627 5.373-12 12-12h415c6.627 0 12 5.373 12 12V903z" fill="#FFFFFF" p-id="12416"></path><path d="M950.56 920h-415c-9.374 0-17-7.626-17-17V564.069c0-9.374 7.626-17 17-17h415c9.374 0 17 7.626 17 17V903c0 9.374-7.626 17-17 17z m-415-362.931c-3.859 0-7 3.141-7 7V903c0 3.859 3.141 7 7 7h415c3.859 0 7-3.141 7-7V564.069c0-3.859-3.141-7-7-7h-415z" fill="#FFFFFF" p-id="12417"></path><path d="M974 910.4c0 6.406-5.256 11.6-11.74 11.6H556.24c-6.484 0-11.74-5.193-11.74-11.6V582.769c0-6.406 5.256-11.6 11.74-11.6h406.02c6.484 0 11.74 5.193 11.74 11.6V910.4z" fill="#F4DD50" p-id="12418"></path><path d="M958 928H810.44c-2.762 0-5-2.238-5-5s2.238-5 5-5H958c3.859 0 7-3.141 7-7V572.069c0-3.859-3.141-7-7-7H543c-3.859 0-7 3.141-7 7V911c0 3.859 3.141 7 7 7h80.44c2.762 0 5 2.238 5 5s-2.238 5-5 5H543c-9.374 0-17-7.626-17-17V572.069c0-9.374 7.626-17 17-17h415c9.374 0 17 7.626 17 17V911c0 9.374-7.626 17-17 17z" p-id="12419"></path><path d="M760 927H650c-2.762 0-5-2.238-5-5s2.238-5 5-5h110c2.762 0 5 2.238 5 5s-2.238 5-5 5z" p-id="12420"></path><path d="M657.5 582.269a7.2 7.2 0 0 1-7.2 7.2h-6.6a7.2 7.2 0 0 1-7.2-7.2v-39a7.2 7.2 0 0 1 7.2-7.2h6.6a7.2 7.2 0 0 1 7.2 7.2v39z" fill="#FFFFFF" p-id="12421"></path><path d="M654.5 587.669c0 3.976-2.302 7.2-5.143 7.2h-4.714c-2.84 0-5.143-3.224-5.143-7.2v-39c0-3.976 2.303-7.2 5.143-7.2h4.714c2.84 0 5.143 3.224 5.143 7.2v39z" p-id="12422"></path><path d="M757.75 582.269a7.2 7.2 0 0 1-7.2 7.2h-6.6a7.2 7.2 0 0 1-7.2-7.2v-39a7.2 7.2 0 0 1 7.2-7.2h6.6a7.2 7.2 0 0 1 7.2 7.2v39z" fill="#FFFFFF" p-id="12423"></path><path d="M754.75 587.669c0 3.976-2.303 7.2-5.143 7.2h-4.714c-2.84 0-5.143-3.224-5.143-7.2v-39c0-3.976 2.302-7.2 5.143-7.2h4.714c2.84 0 5.143 3.224 5.143 7.2v39z" p-id="12424"></path><path d="M858 582.269a7.2 7.2 0 0 1-7.2 7.2h-6.6a7.2 7.2 0 0 1-7.2-7.2v-39a7.2 7.2 0 0 1 7.2-7.2h6.6a7.2 7.2 0 0 1 7.2 7.2v39z" fill="#FFFFFF" p-id="12425"></path><path d="M855 587.669c0 3.976-2.303 7.2-5.143 7.2h-4.714c-2.84 0-5.143-3.224-5.143-7.2v-39c0-3.976 2.303-7.2 5.143-7.2h4.714c2.84 0 5.143 3.224 5.143 7.2v39z" p-id="12426"></path><path d="M621.851 696.967v-21.896h34.629v90.559h-23.205v-68.663h-11.424zM709.554 743.258c5.394 0 8.092-2.577 8.092-7.735 0-2.38-0.755-4.302-2.261-5.771-1.509-1.467-3.451-2.201-5.831-2.201h-21.302v-12.495l16.422-18.088H677.78v-21.896h60.095v12.494l-3.094 3.332-0.952 1.071a86.485 86.485 0 0 0-3.451 3.63l-2.38 2.678-6.901 7.378c-1.666 1.825-2.659 2.975-2.976 3.45 3.332 0 6.861 1.271 10.591 3.809 7.774 5.474 11.662 12.495 11.662 21.063v5.355c0 8.567-2.896 15.153-8.687 19.754-5.316 4.364-12.298 6.545-20.944 6.545h-32.605v-22.372h31.416zM758.225 696.967v-21.896h34.629v90.559h-23.205v-68.663h-11.424zM812.013 747.423v-18.207l37.604-54.145h21.301v52.359h7.26v19.992h-7.26v18.207h-23.442v-18.207h-35.463z m35.462-39.627l-11.543 19.635h11.543v-19.635z" fill="#FFFFFF" p-id="12427"></path><path d="M883 826H624a3 3 0 1 1 0-6h259a3 3 0 1 1 0 6zM833.75 854h-173a3 3 0 1 1 0-6h173a3 3 0 1 1 0 6z" p-id="12428"></path></svg>