<?xml version="1.0" standalone="no"?><!DOCTYPE svg PUBLIC "-//W3C//DTD SVG 1.1//EN" "http://www.w3.org/Graphics/SVG/1.1/DTD/svg11.dtd"><svg t="1563586644747" class="icon" viewBox="0 0 1024 1024" version="1.1" xmlns="http://www.w3.org/2000/svg" p-id="3991" xmlns:xlink="http://www.w3.org/1999/xlink" width="64" height="64"><defs><style type="text/css"></style></defs><path d="M313.344 214.528h48.810667a136.533333 136.533333 0 0 1 136.533333 136.533333v238.933334H176.810667v-238.933334a136.533333 136.533333 0 0 1 136.533333-136.533333z" fill="#69BAF9" p-id="3992"></path><path d="M853.333333 658.261333H170.666667a34.133333 34.133333 0 0 1-34.133334-34.133333 34.133333 34.133333 0 0 1 34.133334-34.133333h682.666666a34.133333 34.133333 0 0 1 34.133334 34.133333 34.133333 34.133333 0 0 1-34.133334 34.133333z" fill="#FCFEFF" p-id="3993"></path><path d="M498.517333 351.061333a144.896 144.896 0 0 0-0.853333-15.018666l-162.474667-25.770667a22.698667 22.698667 0 0 0-25.941333 18.944L301.909333 375.466667h196.608z" fill="#FFA742" p-id="3994"></path><path d="M279.893333 375.466667a22.869333 22.869333 0 0 0-22.698666 22.698666v191.829334h241.322666V375.466667z" fill="#FFC670" p-id="3995"></path><path d="M356.864 541.866667a494.933333 494.933333 0 0 1-99.669333-9.898667v58.026667h241.322666v-69.290667a456.362667 456.362667 0 0 1-141.653333 21.162667z" fill="#FFB038" p-id="3996"></path><path d="M238.933333 658.261333v8.192a45.568 45.568 0 0 0 45.568 45.568h180.565334V921.6h93.866666V712.021333h180.565334A45.568 45.568 0 0 0 785.066667 666.453333v-8.192z" fill="#D8E3F0" p-id="3997"></path><path d="M847.189333 328.362667v261.632H498.517333v-238.933334a136.533333 136.533333 0 0 0-136.533333-136.533333H733.866667a113.834667 113.834667 0 0 1 113.322666 113.834667z" fill="#96DDFF" p-id="3998"></path><path d="M619.349333 147.456h134.144v107.349333h-134.144z" fill="#F6716F" p-id="3999"></path><path d="M619.349333 432.298667a48.64 48.64 0 1 0-48.64-48.469334 48.469333 48.469333 0 0 0 48.64 48.469334zM498.517333 532.992h348.672v57.002667H498.517333z" fill="#69BAF9" p-id="4000"></path><path d="M864.256 574.293333V328.362667a130.730667 130.730667 0 0 0-93.866667-125.269334V147.456a17.066667 17.066667 0 0 0-17.066666-17.066667h-133.973334a17.066667 17.066667 0 0 0-17.066666 17.066667v50.005333H313.344a153.6 153.6 0 0 0-153.6 153.6v223.232a51.2 51.2 0 0 0 10.922667 101.034667h52.053333a62.634667 62.634667 0 0 0 61.781333 53.76h163.498667V921.6a17.066667 17.066667 0 1 0 34.133333 0V729.088h59.733334V921.6a17.066667 17.066667 0 1 0 34.133333 0V729.088h163.498667A62.634667 62.634667 0 0 0 802.133333 675.328h51.2a51.2 51.2 0 0 0 10.922667-101.034667z m-227.84-409.6h99.84v73.216h-99.84z m-17.066667 187.733334a31.573333 31.573333 0 1 1-31.573333 31.573333 31.573333 31.573333 0 0 1 31.573333-31.744z m-17.066666-120.661334v89.088a65.536 65.536 0 1 0 34.133333 0v-48.981333h116.906667a17.066667 17.066667 0 0 0 17.066666-17.066667V238.933333a96.938667 96.938667 0 0 1 59.733334 89.258667v187.733333H515.584v-164.864a153.6 153.6 0 0 0-57.173333-119.466666z m227.84 318.293334v22.869333H515.584v-22.869333z m-500.053334-83.968l80.384 39.936a18.090667 18.090667 0 0 0 15.36 0L481.450667 477.866667v94.549333H274.261333V398.165333a5.632 5.632 0 0 1 5.632-5.632h201.557334v47.616l-63.317334 31.573334-72.874666-36.181334a17.066667 17.066667 0 0 0-22.869334 7.68 17.066667 17.066667 0 0 0 7.68 22.869334zM321.877333 358.4l4.096-26.453333a5.973333 5.973333 0 0 1 6.656-4.778667l148.821334 23.552V358.4z m-128-7.338667a119.466667 119.466667 0 0 1 119.466667-119.466666h48.64a119.466667 119.466667 0 0 1 114.005333 83.797333l-138.069333-22.016a39.936 39.936 0 0 0-45.568 33.109333l-5.12 31.914667h-7.338667a39.936 39.936 0 0 0-39.765333 39.765333v174.762667h-46.250667z m546.133334 343.893334H284.501333a28.501333 28.501333 0 0 1-26.965333-19.626667h508.928a28.501333 28.501333 0 0 1-26.965333 19.626667zM853.333333 641.194667H170.666667a17.066667 17.066667 0 0 1 0-34.133334h682.666666a17.066667 17.066667 0 0 1 0 34.133334z" fill="#3D3D63" p-id="4001"></path></svg>