<?xml version="1.0" standalone="no"?><!DOCTYPE svg PUBLIC "-//W3C//DTD SVG 1.1//EN" "http://www.w3.org/Graphics/SVG/1.1/DTD/svg11.dtd"><svg t="1563940055413" class="icon" viewBox="0 0 1024 1024" version="1.1" xmlns="http://www.w3.org/2000/svg" p-id="4834" xmlns:xlink="http://www.w3.org/1999/xlink" width="64" height="64"><defs><style type="text/css"></style></defs><path d="M76.238147 116.070224h633.931226v737.869427H76.238147zM637.819233 116.070224l-89.076172-89.074172-89.074172 89.074172zM710.183373 762.075474l286.820555-286.820555-286.820555-286.820555z" fill="#FECC85" p-id="4835"></path><path d="M332.188642 853.933651l143.068277 143.070277 143.068277-143.070277z" fill="#FECC85" p-id="4836"></path><path d="M710.183373 331.292641v294.024568l147.012284-147.012284zM172.938334 217.07842h440.528852v377.43873H172.938334z" fill="#BBDCE3" p-id="4837"></path><path d="M448.116866 306.938593c-33.240064 0-59.320115 37.064072-59.320114 37.064072s-24.600048-37.064072-59.332115-37.064072c-33.784065 0-61.374119 27.866054-63.180122 61.60412-1.018002 19.060037 5.12601 33.564065 13.784027 46.70409 17.300033 26.248051 92.93018 89.440173 108.83821 89.440173 16.238031 0 91.196176-62.962122 108.61021-89.440173 8.674017-13.198026 14.802029-27.644053 13.782027-46.70409-1.806003-33.738065-29.392057-61.604119-63.182123-61.60412" fill="#FF5E8A" p-id="4838"></path><path d="M1016.093965 456.164882L737.179425 177.248343V116.070224c0-14.908029-12.088023-26.996052-26.996052-26.996052h-61.176118L567.835098 7.906015c-10.54402-10.54002-27.634053-10.54002-38.182074 0l-81.170157 81.168157H76.248147c-14.908029 0-26.996052 12.090023-26.996052 26.996052v372.23872L7.906015 529.655024c-10.54202 10.54202-10.54202 27.636053 0 38.182074l41.34608 41.34608v244.752473c0 14.908029 12.090023 26.996052 26.996052 26.996052H321.000621l135.164261 135.160262a26.920052 26.920052 0 0 0 19.090037 7.908015c6.908013 0 13.816027-2.638005 19.090037-7.908015l135.164261-135.160262h80.676156c14.908029 0 26.996052-12.088023 26.996052-26.996052V773.261495l278.91454-278.916539c10.54002-10.54402 10.54002-27.638053-0.002-38.180074zM548.747061 65.176126l23.900046 23.900046h-47.798092l23.898046-23.900046z m-73.492142 893.647728l-77.892151-77.892151h155.786302l-77.894151 77.892151z m207.932402-131.886255H103.2442V143.068277h579.939121v683.869322h0.004z m53.992104-430.466832l81.834159 81.834158-81.834159 81.834158v-163.668316z m0 300.430581v-60.400117l139.104269-139.104269a27.004052 27.004052 0 0 0 0-38.180074l-139.104269-139.104269v-66.506129l221.646429 221.646429L737.179425 696.901348z" fill="" p-id="4839"></path><path d="M172.952334 621.535202H613.481186c14.908029 0 26.996052-12.088023 26.996052-26.996052V217.08842c0-14.908029-12.088023-26.996052-26.996052-26.996052H172.952334c-14.908029 0-26.996052 12.090023-26.996052 26.996052v377.44673c0 14.910029 12.086023 27.000052 26.996052 27.000052z m26.996053-377.44873h386.536747v323.452625H199.948387V244.086472z" fill="" p-id="4840"></path><path d="M448.116866 279.942541c-24.292047 0-44.684086 12.188024-59.020114 24.402047-14.174027-12.264024-34.540067-24.402047-59.632115-24.402047-47.930093 0-87.522169 38.286074-90.142174 87.164169-1.560003 29.332057 9.640019 50.000097 18.204035 62.996122 14.306028 21.706042 49.750096 51.8001 60.270116 60.508117 49.644096 41.072079 64.144124 41.072079 71.112138 41.072079 7.044014 0 21.706042 0 71.108137-41.016079 21.522042-17.866035 48.600094-43.164083 60.058117-60.588117 8.556017-13.014025 19.748038-33.706065 18.176035-62.974122-2.612005-48.876095-42.204082-87.162169-90.134175-87.162169z m26.846052 120.468233c-12.778025 19.430038-65.510127 64.198124-85.998166 75.646147-20.65804-11.554022-73.630142-56.366109-86.348167-75.666147-7.224014-10.964021-9.938019-19.772038-9.374018-30.408059 1.066002-19.878038 17.316033-36.05207 36.22407-36.052069 16.170031 0 32.484063 18.608036 36.840071 24.996048a26.996052 26.996052 0 0 0 44.568086 0.606001c5.644011-8.020016 22.860044-25.60005 37.244072-25.600049 18.908037 0 35.158068 16.170031 36.224071 36.054069 0.568001 10.612021-2.148004 19.430038-9.380019 30.424059zM160.48231 717.173387h330.92064c14.908029 0 26.996052-12.088023 26.996052-26.996052s-12.088023-26.996052-26.996052-26.996053H160.48231c-14.908029 0-26.996052 12.090023-26.996052 26.996053 0 14.906029 12.086023 26.996052 26.996052 26.996052zM586.941135 667.741291a26.930052 26.930052 0 0 0-4.668009-2.484005 25.452049 25.452049 0 0 0-5.04801-1.538003 26.720052 26.720052 0 0 0-10.55602 0c-1.700003 0.324001-3.402007 0.864002-5.04801 1.538003-1.620003 0.674001-3.186006 1.514003-4.644009 2.484005a25.72005 25.72005 0 0 0-4.106008 3.348007c-5.04801 5.02201-7.910015 11.986023-7.910015 19.086037 0 1.752003 0.162 3.536007 0.510001 5.26201 0.354001 1.730003 0.890002 3.432007 1.566003 5.048009 0.674001 1.646003 1.488003 3.212006 2.456004 4.670009a27.376053 27.376053 0 0 0 7.480015 7.478015c1.458003 0.972002 3.024006 1.782003 4.644009 2.456005 1.646003 0.674001 3.348006 1.214002 5.04801 1.538003 1.752003 0.352001 3.536007 0.540001 5.29201 0.540001 1.752003 0 3.536007-0.188 5.26401-0.540001a25.412049 25.412049 0 0 0 5.04801-1.538003 26.538051 26.538051 0 0 0 4.668009-2.456005 27.680054 27.680054 0 0 0 4.106008-3.374007 25.554049 25.554049 0 0 0 3.344006-4.104008 26.740052 26.740052 0 0 0 2.484005-4.670009c0.674001-1.620003 1.188002-3.318006 1.538003-5.048009 0.350001-1.728003 0.540001-3.510007 0.540001-5.26201 0-7.100014-2.888006-14.066027-7.910015-19.086037a25.572049 25.572049 0 0 0-4.098008-3.348007z" fill="" p-id="4841"></path></svg>