<?xml version="1.0" standalone="no"?><!DOCTYPE svg PUBLIC "-//W3C//DTD SVG 1.1//EN" "http://www.w3.org/Graphics/SVG/1.1/DTD/svg11.dtd"><svg t="1563257186522" class="icon" viewBox="0 0 1024 1024" version="1.1" xmlns="http://www.w3.org/2000/svg" p-id="15717" xmlns:xlink="http://www.w3.org/1999/xlink" width="64" height="64"><defs><style type="text/css"></style></defs><path d="M178.208 496.97q0-131.5 0.014-263c0.01-24.871 15.029-44.548 38.23-50.326a60.945 60.945 0 0 1 14.869-1.461q91.5 0.048 183 0.107c3.775 0.008 5.281-0.816 6.278-4.778a75.3 75.3 0 0 1 146.207-0.065c0.981 3.885 2.369 4.859 6.223 4.851q91-0.2 182-0.089c32.054 0.006 53.173 21.13 53.176 53.2q0.014 156.249-0.086 312.5c0 3.946 1.255 6.117 4.5 8.361 47.854 33.093 77.1 78.194 84.6 136.06 12.265 94.688-42.181 180.843-132.377 211.17-85.613 28.787-183-7.793-228.272-85.958-2.46-4.248-5.014-5.451-9.71-5.444q-148.5 0.217-297 0.093c-24.663-0.009-44.133-14.829-50.092-37.868a60.7 60.7 0 0 1-1.57-15.351q0.03-131.003 0.01-262.002z m525 396.066c13.055 0.473 25.916-1.181 38.624-3.927 87.387-18.883 147.2-102.545 136.093-191.412-6.64-53.11-32.467-95.109-77.045-125.055-29.462-19.791-62.2-29.26-97.679-29.254a171.144 171.144 0 0 0-54.811 9.072c-80.684 27.3-130.318 108.368-116.933 192.6 7.928 49.889 33.087 89.694 75.02 118.237a167.82 167.82 0 0 0 96.73 29.74zM504.155 287.325c-33.824-0.042-67.648 0.006-101.472-0.156a60.872 60.872 0 0 1-58.583-46.234c-2.753-11.021-1.82-22.176-1.764-33.285 0.022-4.384-1.085-5.575-5.534-5.553-36.824 0.185-73.649 0.08-110.474 0.105-14.541 0.01-28.121 13.667-28.122 28.265q-0.015 266.688 0 533.375c0 14.87 13.589 28.37 28.524 28.37q136.218 0 272.436-0.013c1.665 0 3.33-0.075 4.995-0.114 4.663 0.04 9.334-0.076 13.987 0.165 4.16 0.216 5.578-0.291 3.724-5.121a193.841 193.841 0 0 1 13.625-166.619c18.806-32.068 44.446-57.094 77.265-74.47 33.541-17.759 69.269-25.233 107.289-22.014a194.253 194.253 0 0 1 55.553 12.8c4.059 1.606 8.127 3.188 12.186 4.78a5.362 5.362 0 0 0 0.363-0.995q0.048-155.944 0.023-311.887c-0.01-12.764-13.973-26.459-26.75-26.5-37.32-0.117-74.64 0-111.96-0.08-3.208-0.007-4.408 0.869-4.32 4.213 0.2 7.658 0.434 15.35-0.042 22.985-1.037 16.636-7.568 30.99-20 42.138-12.55 11.25-27.605 15.945-44.472 15.792-25.496-0.228-50.987 0.013-76.477 0.053zM493.3 266.2c30.316 0 60.631 0.1 90.946-0.034a39.594 39.594 0 0 0 39.177-32.677c1.548-8.1 0.2-16.3 0.879-24.406 0.41-4.861-1.115-6.063-5.956-6-22.15 0.284-44.306 0.048-66.459 0.2-3.549 0.025-4.55-0.713-3.913-4.4 0.766-4.428 0.023-8.94-0.747-13.393-4.654-26.905-31.624-47.237-58.585-44.11-29.559 3.429-51.54 28.72-49.157 57.155 0.387 4.618-1.128 4.732-4.632 4.716-22.486-0.1-44.974 0.005-67.46-0.115-3.168-0.017-4.419 0.725-4.257 4.115 0.269 5.65 0.06 11.323 0.076 16.987 0.069 24.929 17.116 41.928 42.139 41.955q43.972 0.051 87.949 0.007z" fill="#343741" p-id="15718"></path><path d="M504.155 792.084c-1.665 0.04-3.33 0.115-4.994 0.115q-136.218 0.014-272.436 0.013c-14.935 0-28.523-13.5-28.524-28.37q-0.012-266.688 0-533.375c0-14.6 13.58-28.255 28.122-28.265 36.825-0.025 73.65 0.08 110.474-0.105 4.449-0.022 5.556 1.169 5.534 5.553-0.056 11.109-0.989 22.264 1.764 33.285a60.872 60.872 0 0 0 58.588 46.234c33.823 0.162 67.648 0.113 101.472 0.155l0.014 81.793q-38.488 0.059-76.977 0.093c-5.081 0-9.6 1.287-13.011 5.154-4.1 4.64-5.311 10.051-2.754 15.776 2.687 6.018 7.557 9.08 14.243 9.09q39.237 0.062 78.475 0.141l0.013 110.714c-1 0.04-2 0.114-3 0.114q-37.5 0.011-75 0.009c-5.706 0-10.492 1.951-13.488 7.005-6.321 10.662 0.534 22.878 12.988 22.951 26.164 0.153 52.329 0.118 78.493 0.159q0.006 125.877 0.004 251.761z m-244.78-148.07c-7.308 0.14-11.729 2.743-14.414 7.886-2.978 5.7-2.728 11.535 1.63 16.294 11.916 13.013 24.349 25.555 37.421 37.4 6.113 5.539 14.073 5.044 19.865-0.691q31.95-31.632 63.606-63.56c3.712-3.73 5.5-8.333 4.281-13.682-2.7-11.843-16.526-16.011-25.317-7.384-16.282 15.978-32.314 32.211-48.451 48.336-4.469 4.465-4.472 4.464-9.1-0.162q-9.717-9.712-19.428-19.429c-3.194-3.203-6.878-5.222-10.093-5.008z m-1.742-140.884c-2.983-0.316-5.888 0.881-8.486 2.8-7.794 5.763-8.082 16.038-0.4 23.909 10.585 10.842 21.347 21.513 32.123 32.166 8.6 8.5 16.578 8.417 25.125-0.115q23.689-23.646 47.338-47.331c4.827-4.828 9.827-9.5 14.422-14.539 7.407-8.123 4.976-19.822-4.775-24.059-6.061-2.634-11.868-1.41-17.229 3.924-16.289 16.209-32.58 32.418-48.7 48.793-2.795 2.839-4.418 2.791-7.109-0.055-6.634-7.014-13.6-13.71-20.422-20.551-3.188-3.198-6.85-5.253-11.887-4.942z m0.851-141.042c-7.321-0.022-12.745 4.045-14.726 10.8-1.862 6.345 0.516 11.458 4.849 15.836 10.893 11.007 21.79 22.014 32.859 32.843 7.993 7.819 16.166 7.664 24.043-0.194q30.417-30.341 60.751-60.765a24.849 24.849 0 0 0 3.486-4.216 14.712 14.712 0 0 0-8.939-22.175c-6.064-1.5-10.976 0.47-15.32 4.853-15.825 15.966-31.9 31.684-47.558 47.814-3.686 3.8-5.624 3.418-8.932-0.171-6.315-6.851-13.1-13.267-19.7-19.853-3.072-3.06-6.64-4.991-10.813-4.772zM440.224 689.2c4.823 0 9.647 0.06 14.468-0.013 8.831-0.135 15.44-6.519 15.493-14.874s-6.553-14.977-15.278-15.075q-14.716-0.164-29.435 0c-8.721 0.1-15.312 6.743-15.244 15.108a15.074 15.074 0 0 0 15.029 14.827c4.987 0.112 9.978 0.021 14.967 0.027z" fill="#707A9A" p-id="15719"></path><path d="M504.169 369.117l-0.014-81.793c25.489-0.039 50.981-0.28 76.468-0.049 16.867 0.153 31.922-4.542 44.472-15.792 12.436-11.148 18.967-25.5 20-42.138 0.476-7.635 0.243-15.327 0.042-22.985-0.088-3.343 1.111-4.22 4.32-4.213 37.32 0.084 74.64-0.038 111.96 0.08 12.777 0.04 26.74 13.734 26.75 26.5q0.118 155.943-0.023 311.887a5.362 5.362 0 0 1-0.363 0.995c-4.059-1.591-8.127-3.173-12.186-4.78a194.253 194.253 0 0 0-55.553-12.8c-38.02-3.219-73.748 4.255-107.289 22.014-32.818 17.376-58.459 42.4-77.265 74.47a193.841 193.841 0 0 0-13.621 166.617c1.854 4.83 0.436 5.336-3.724 5.121-4.653-0.241-9.324-0.125-13.987-0.166V540.323c10.975-0.04 21.95-0.064 32.924-0.125 9.279-0.052 16-6.222 16.111-14.744 0.117-8.78-6.635-15.189-16.111-15.243-10.974-0.062-21.949-0.086-32.924-0.126l-0.013-110.715c2-0.05 3.992-0.141 5.987-0.142 28.136-0.01 56.272 0.038 84.408-0.032 11.582-0.029 19.065-11.7 13.787-21.562-3.187-5.955-8.473-8.464-15.258-8.451-29.631 0.055-59.267-0.031-88.898-0.066z m179.855 30.1h20.949c8.643-0.182 15.019-6.266 15.222-14.525a15.163 15.163 0 0 0-14.555-15.36q-21.436-0.472-42.889 0c-8.475 0.2-14.917 7.726-14.515 15.934 0.387 7.9 6.869 13.839 15.34 13.932 6.814 0.079 13.631 0.019 20.448 0.022z" fill="#5A6286" p-id="15720"></path><path d="M703.207 893.037a167.82 167.82 0 0 1-96.732-29.744c-41.933-28.543-67.092-68.348-75.02-118.237-13.384-84.229 36.249-165.3 116.933-192.6a171.144 171.144 0 0 1 54.811-9.072v19.688c-4.15 0.795-7.9 2.316-10.627 5.753-7.231 9.106-2.236 22.771 10.627 24.5 0 3.46 0.193 6.933-0.041 10.377-0.342 5.035 1.152 10.186-0.915 15.111-6.652 2.63-8.427 5.1-8.452 12.381-0.055 16.12-0.127 32.241 0.066 48.358 0.043 3.617-0.911 5.421-4.382 7.068-12.62 5.986-19.554 16.3-20.161 30.254-0.845 19.526 12.963 34.126 33.886 36.479v89.722c-4.15 0.795-7.9 2.316-10.627 5.753-7.231 9.106-2.236 22.771 10.627 24.5q0.005 9.857 0.007 19.709z m-138.875-189.8a14.97 14.97 0 1 0 14.841 14.968 15.07 15.07 0 0 0-14.841-14.968z m3.777-55.248a14.822 14.822 0 0 0 14.636 15.178 14.963 14.963 0 1 0 0.433-29.922 14.814 14.814 0 0 0-15.069 14.744z m66.327-65.889a14.839 14.839 0 0 0-15.195 14.628 14.967 14.967 0 1 0 29.931 0.456 14.829 14.829 0 0 0-14.736-15.084z m-66.33 205.873a14.839 14.839 0 0 0 14.629 15.194 14.967 14.967 0 1 0 0.455-29.93 14.829 14.829 0 0 0-15.084 14.739z m65.978 66.327a14.819 14.819 0 0 0 15.085-14.73 14.963 14.963 0 1 0-29.924-0.248 14.812 14.812 0 0 0 14.839 14.978z" fill="#FEE180" p-id="15721"></path><path d="M703.207 893.037v-19.7c9.888-0.921 15.832-6.46 15.97-14.882 0.141-8.621-5.9-14.439-15.97-15.377v-89.725c14.694-0.5 26-6.73 32.443-20.183 1.757-3.67 3.645-4.679 7.449-4.635 16.646 0.193 33.3 0.161 49.942 0.043 7.919-0.056 12.5-5.221 11.329-12.318-0.879-5.335-5-8.419-11.741-8.446-16.648-0.068-33.3-0.089-49.943 0.031-3.306 0.024-5.324-0.538-6.771-4.092a30.837 30.837 0 0 0-17.178-17.226c-3.462-1.433-4.2-3.344-4.174-6.719 0.143-16.147 0.106-32.3 0.047-48.445-0.033-8.935-3.327-12.2-12.357-12.541 2.067-4.925 0.573-10.075 0.915-15.111 0.234-3.444 0.042-6.917 0.041-10.377 9.888-0.921 15.832-6.46 15.97-14.881 0.141-8.62-5.9-14.439-15.97-15.377v-19.688c35.482-0.005 68.216 9.463 97.679 29.254 44.579 29.946 70.405 71.945 77.045 125.055 11.111 88.868-48.705 172.53-136.093 191.412-12.717 2.746-25.577 4.401-38.633 3.928z m155.965-175.052a14.967 14.967 0 1 0-14.622 15.186 15.067 15.067 0 0 0 14.622-15.186zM840.3 647.977a14.813 14.813 0 0 0-15.076-14.733 14.963 14.963 0 1 0 0.452 29.923 14.823 14.823 0 0 0 14.624-15.19z m-66.146-65.869a14.815 14.815 0 0 0-14.914 14.9 14.964 14.964 0 1 0 29.928-0.1 14.815 14.815 0 0 0-15.011-14.8zM840.3 788.27a14.814 14.814 0 0 0-14.786-15.029 14.963 14.963 0 1 0-0.127 29.926A14.8 14.8 0 0 0 840.3 788.27z m-66.175 66.03a14.824 14.824 0 0 0 15.046-14.77 14.965 14.965 0 1 0-29.929-0.166 14.818 14.818 0 0 0 14.883 14.936z" fill="#FED85A" p-id="15722"></path><path d="M493.3 266.2q-43.974 0.006-87.948 0c-25.023-0.027-42.069-17.026-42.139-41.955-0.016-5.663 0.194-11.336-0.076-16.987-0.162-3.39 1.089-4.132 4.257-4.115 22.486 0.121 44.973 0.015 67.46 0.115 3.5 0.016 5.019-0.1 4.632-4.716-2.382-28.435 19.6-53.726 49.157-57.155 26.961-3.128 53.93 17.2 58.585 44.11 0.77 4.453 1.514 8.964 0.747 13.393-0.637 3.683 0.363 4.421 3.913 4.4 22.153-0.155 44.309 0.081 66.459-0.2 4.841-0.062 6.365 1.139 5.956 6-0.683 8.106 0.669 16.305-0.879 24.406a39.594 39.594 0 0 1-39.177 32.677c-30.319 0.119-60.635 0.027-90.947 0.027z" fill="#F5715A" p-id="15723"></path><path d="M504.169 369.117c29.633 0.035 59.267 0.121 88.9 0.066 6.786-0.013 12.071 2.5 15.258 8.451 5.278 9.862-2.2 21.533-13.787 21.562-28.136 0.071-56.272 0.022-84.408 0.032-2 0-3.991 0.092-5.987 0.142l-78.475-0.14c-6.686-0.01-11.556-3.072-14.243-9.09-2.556-5.725-1.345-11.136 2.754-15.776 3.416-3.867 7.93-5.157 13.011-5.154q38.489 0.022 76.977-0.093z" fill="#343741" p-id="15724"></path><path d="M259.375 644.014c3.215-0.211 6.9 1.805 10.093 5.008q9.7 9.728 19.428 19.429c4.629 4.626 4.632 4.627 9.1 0.162 16.137-16.125 32.169-32.358 48.451-48.336 8.791-8.627 22.613-4.459 25.317 7.384 1.221 5.349-0.569 9.951-4.281 13.682q-31.714 31.869-63.606 63.56c-5.793 5.735-13.752 6.23-19.865 0.691-13.072-11.845-25.5-24.387-37.421-37.4-4.358-4.759-4.608-10.591-1.63-16.294 2.685-5.143 7.106-7.746 14.414-7.886zM257.633 503.13c5.037-0.311 8.7 1.744 11.889 4.945 6.817 6.841 13.788 13.537 20.422 20.551 2.692 2.846 4.315 2.894 7.109 0.055 16.122-16.375 32.412-32.584 48.7-48.793 5.361-5.335 11.168-6.558 17.229-3.924 9.751 4.236 12.183 15.935 4.775 24.059-4.6 5.04-9.6 9.711-14.422 14.539q-23.663 23.67-47.335 47.331c-8.547 8.531-16.528 8.613-25.125 0.115-10.777-10.653-21.538-21.324-32.123-32.166-7.685-7.871-7.4-18.147 0.4-23.909 2.593-1.922 5.498-3.12 8.481-2.803zM258.484 362.088c4.173-0.218 7.741 1.708 10.81 4.77 6.6 6.587 13.388 13 19.7 19.853 3.309 3.589 5.246 3.97 8.932 0.171 15.654-16.131 31.733-31.848 47.558-47.814 4.344-4.382 9.256-6.35 15.32-4.853a14.712 14.712 0 0 1 8.939 22.175 24.849 24.849 0 0 1-3.486 4.216q-30.346 30.412-60.751 60.765c-7.878 7.858-16.051 8.013-24.043 0.194-11.063-10.828-21.963-21.835-32.856-32.842-4.333-4.378-6.71-9.492-4.849-15.836 1.982-6.755 7.406-10.821 14.726-10.799z" fill="#FEE180" p-id="15725"></path><path d="M504.159 510.085c10.975 0.04 21.949 0.064 32.924 0.126 9.477 0.054 16.228 6.463 16.111 15.243-0.114 8.522-6.831 14.692-16.111 14.744-10.975 0.062-21.949 0.085-32.924 0.125-26.165-0.041-52.33-0.005-78.493-0.159-12.454-0.073-19.309-12.289-12.988-22.951 3-5.055 7.782-7 13.488-7.005q37.5 0 75-0.009c0.996 0.001 1.994-0.074 2.993-0.114zM440.224 689.2c-4.989 0-9.98 0.089-14.967-0.023a15.074 15.074 0 0 1-15.029-14.827c-0.068-8.365 6.523-15.007 15.244-15.108q14.716-0.17 29.435 0c8.725 0.1 15.33 6.722 15.278 15.075s-6.662 14.739-15.493 14.874c-4.821 0.069-9.645 0.009-14.468 0.009zM684.024 399.218c-6.816 0-13.633 0.059-20.449-0.017-8.471-0.094-14.953-6.036-15.34-13.932-0.4-8.208 6.04-15.737 14.515-15.934q21.435-0.5 42.889 0a15.163 15.163 0 0 1 14.555 15.36c-0.2 8.259-6.578 14.343-15.222 14.525h-0.5l-20.448-0.002zM702.247 618.822c9.03 0.344 12.324 3.606 12.357 12.541 0.059 16.148 0.1 32.3-0.047 48.445-0.03 3.374 0.713 5.286 4.174 6.719a30.837 30.837 0 0 1 17.178 17.226c1.447 3.555 3.465 4.116 6.771 4.092 16.647-0.119 33.3-0.1 49.943-0.031 6.741 0.027 10.862 3.111 11.741 8.446 1.169 7.1-3.41 12.262-11.329 12.318-16.647 0.118-33.3 0.15-49.942-0.043-3.8-0.044-5.692 0.965-7.449 4.635-6.439 13.452-17.75 19.685-32.443 20.183-20.925-2.349-34.732-16.951-33.883-36.47 0.607-13.951 7.542-24.268 20.161-30.254 3.471-1.647 4.425-3.45 4.382-7.068-0.192-16.117-0.121-32.239-0.066-48.358 0.025-7.278 1.8-9.751 8.452-12.381zM703.2 843.075c10.067 0.937 16.11 6.756 15.97 15.377-0.137 8.422-6.081 13.961-15.97 14.882-12.864-1.734-17.858-15.4-10.627-24.5 2.732-3.443 6.479-4.964 10.627-5.759zM564.332 703.237a14.97 14.97 0 1 1-15.092 14.718 15.075 15.075 0 0 1 15.092-14.718zM703.2 563.075c10.067 0.938 16.11 6.756 15.97 15.377-0.137 8.422-6.082 13.961-15.97 14.881-12.864-1.734-17.859-15.4-10.627-24.5 2.732-3.442 6.479-4.963 10.627-5.758zM568.109 647.989a14.814 14.814 0 0 1 15.069-14.744 14.963 14.963 0 1 1-0.433 29.922 14.822 14.822 0 0 1-14.636-15.178zM634.436 582.1a14.829 14.829 0 0 1 14.736 15.084 14.967 14.967 0 1 1-29.931-0.456 14.839 14.839 0 0 1 15.195-14.628zM568.106 787.976a14.829 14.829 0 0 1 15.083-14.737 14.967 14.967 0 1 1-0.455 29.93 14.839 14.839 0 0 1-14.628-15.193zM634.084 854.3a14.812 14.812 0 0 1-14.839-14.978 14.963 14.963 0 1 1 29.924 0.248 14.819 14.819 0 0 1-15.085 14.73zM859.172 717.985a14.967 14.967 0 1 1-15.061-14.747 15.072 15.072 0 0 1 15.061 14.747zM840.3 647.977a14.823 14.823 0 0 1-14.624 15.19 14.963 14.963 0 1 1-0.452-29.923 14.813 14.813 0 0 1 15.076 14.733zM774.157 582.108a14.815 14.815 0 0 1 15.014 14.8 14.964 14.964 0 1 1-29.928 0.1 14.815 14.815 0 0 1 14.914-14.9zM840.3 788.27a14.8 14.8 0 0 1-14.913 14.9 14.963 14.963 0 1 1 0.127-29.926A14.814 14.814 0 0 1 840.3 788.27zM774.125 854.3a14.818 14.818 0 0 1-14.883-14.936 14.965 14.965 0 1 1 29.929 0.166 14.824 14.824 0 0 1-15.046 14.77z" fill="#343741" p-id="15726"></path></svg>