<?xml version="1.0" standalone="no"?><!DOCTYPE svg PUBLIC "-//W3C//DTD SVG 1.1//EN" "http://www.w3.org/Graphics/SVG/1.1/DTD/svg11.dtd"><svg t="1565147743972" class="icon" viewBox="0 0 1024 1024" version="1.1" xmlns="http://www.w3.org/2000/svg" p-id="2134" xmlns:xlink="http://www.w3.org/1999/xlink" width="64" height="64"><defs><style type="text/css"></style></defs><path d="M0 0h1024v1024H0z" fill="#FFFFFF" p-id="2135"></path><path d="M149.6 149.6h813.7c22.3 0 40.4 18.1 40.4 40.4v773.3c0 22.3-18.1 40.4-40.4 40.4H149.6" fill="#FFFFFF" p-id="2136"></path><path d="M963.4 1024H149.6c-11.2 0-20.2-9-20.2-20.2s9-20.2 20.2-20.2h813.7c11.1 0 20.2-9.1 20.2-20.2V190.1c0-11.1-9.1-20.2-20.2-20.2H149.6c-11.2 0-20.2-9-20.2-20.2s9-20.2 20.2-20.2h813.7c33.4 0 60.6 27.2 60.6 60.6v773.3c0.1 33.4-27.1 60.6-60.5 60.6z" fill="#403F3F" p-id="2137"></path><path d="M149.6 20.2c-71.2 0-129.4 58.2-129.4 129.4v724.7c0-71.5 57.9-129.4 129.4-129.4S279 802.9 279 874.4V149.6c0-71.1-58.2-129.4-129.4-129.4z" fill="#33ABE3" p-id="2138"></path><path d="M299.3 874.4h-40.4c0-60.2-49-109.2-109.2-109.2s-109.2 49-109.2 109.2H0V149.6C0 67.1 67.1 0 149.6 0s149.6 67.1 149.6 149.6v724.8z m-149.7-834c-60.2 0-109.2 49-109.2 109.2v622.6c27.3-29.2 66.2-47.4 109.2-47.4s81.9 18.3 109.2 47.4V149.6c0-60.2-49-109.2-109.2-109.2z" fill="#403F3F" p-id="2139"></path><path d="M20.2 874.4c0 71.5 57.9 129.4 129.4 129.4-71.1 0-129.4-58.2-129.4-129.4z" fill="#FFFFFF" p-id="2140"></path><path d="M149.6 1024C67.1 1024 0 956.9 0 874.4h40.4c0 60.2 49 109.2 109.2 109.2v40.4z" fill="#403F3F" p-id="2141"></path><path d="M149.6 1024C67.1 1024 0 956.9 0 874.4s67.1-149.6 149.6-149.6 149.6 67.1 149.6 149.6h-40.4c0-60.2-49-109.2-109.2-109.2s-109.2 49-109.2 109.2 49 109.2 109.2 109.2v40.4z" fill="#403F3F" p-id="2142"></path><path d="M895.8 600c0 47.4-85.9 191.6-85.9 191.6S724 647.4 724 600s38.5-85.9 85.9-85.9 85.9 38.4 85.9 85.9z" fill="#33ABE3" p-id="2143"></path><path d="M809.9 811.8c-7.1 0-13.7-3.8-17.4-9.9-14.8-24.9-88.8-151.5-88.8-202 0-58.5 47.6-106.1 106.1-106.1S916.1 541.5 916.1 600c0 50.5-73.9 177.1-88.7 202-3.7 6.1-10.3 9.8-17.5 9.8z m0-277.5c-36.2 0-65.7 29.5-65.7 65.7 0 25.4 35.3 96.8 65.7 151.2 30.4-54.3 65.7-125.8 65.7-151.2 0-36.2-29.4-65.7-65.7-65.7z" fill="#403F3F" p-id="2144"></path><path d="M809.9 597.5m-35 0a35 35 0 1 0 70 0 35 35 0 1 0-70 0Z" fill="#FFFFFF" p-id="2145"></path><path d="M605.2 302H382.9c-11.2 0-20.2-9-20.2-20.2s9-20.2 20.2-20.2h222.3c11.2 0 20.2 9 20.2 20.2s-9 20.2-20.2 20.2zM513.6 894.6h-90.3c-33.4 0-60.6-27.2-60.6-60.6v-85.2c0-33.2 27-60.4 60.2-60.6l157.2-1.2c7.7-0.1 14.9-4.6 18.2-11.6 4.7-10.1 16.8-14.4 26.9-9.7 10.1 4.7 14.5 16.8 9.7 26.9-9.9 21-31.2 34.7-54.4 34.9l-157.2 1.2c-11.1 0.1-20.1 9.2-20.1 20.2V834c0 11.1 9.1 20.2 20.2 20.2h90.3c11.2 0 20.2 9 20.2 20.2-0.1 11.1-9.2 20.2-20.3 20.2z m103.9-250.8c-8.1 0-15.7-4.9-18.8-12.8-3.1-7.8-10.4-12.8-18.8-12.8H423.3c-33.4 0-60.6-27.2-60.6-60.6v-88.1c0-33.4 27.2-60.6 60.6-60.6H508c11.2 0 20.2 9 20.2 20.2s-9 20.2-20.2 20.2h-84.7c-11.1 0-20.2 9.1-20.2 20.2v88.1c0 11.1 9.1 20.2 20.2 20.2h156.6c25.1 0 47.3 15.1 56.5 38.5 4.1 10.4-1 22.1-11.4 26.2-2.5 0.8-5 1.3-7.5 1.3z m156.1-194.7H569.2c-11.2 0-20.2-9-20.2-20.2s9-20.2 20.2-20.2h204.4c11.1 0 20.2-9.1 20.2-20.2v-66.2c0-11.1-9.1-20.2-20.2-20.2H666.4c-11.2 0-20.2-9-20.2-20.2s9-20.2 20.2-20.2h107.2c33.4 0 60.6 27.2 60.6 60.6v66.2c0 33.4-27.1 60.6-60.6 60.6zM798 894.6H575.7c-11.2 0-20.2-9-20.2-20.2s9-20.2 20.2-20.2H798c11.2 0 20.2 9 20.2 20.2 0 11.1-9 20.2-20.2 20.2z" fill="#403F3F" p-id="2146"></path></svg>